<svg width="169" height="32" viewBox="0 0 169 32" fill="none" xmlns="http://www.w3.org/2000/svg">
<path d="M73.7235 27.0494C74.0771 27.5798 74.6075 28.1102 75.1379 28.6406C75.4031 28.9058 75.7567 29.171 76.1103 29.4361C76.4638 29.7013 76.8174 29.9665 77.171 30.1433C77.9666 30.5853 78.7622 31.0273 79.7346 31.2925C80.6186 31.6461 81.6793 31.7345 82.6517 31.9113C83.1821 31.9113 83.7125 31.9113 84.1545 31.9997H84.5081H84.5965H84.7733L85.5688 31.9113C86.6296 31.8229 87.602 31.5577 88.5744 31.2925C89.0164 31.2041 89.5468 30.9389 89.9887 30.7621C90.4307 30.5853 90.8727 30.4085 91.3147 30.1433C91.7567 29.8781 92.1103 29.7013 92.5523 29.5245C92.9943 29.2594 93.3479 28.9942 93.7015 28.8174C94.4086 28.3754 95.0274 27.845 95.6462 27.3146C96.265 26.8726 96.707 26.3422 97.149 25.9002C97.3258 25.635 97.591 25.4582 97.7678 25.2814C97.9446 25.1046 98.033 24.8395 98.2098 24.6627C98.2982 24.5743 98.3866 24.4859 98.475 24.3975H97.0606L96.265 25.193L96.1766 25.2814C93.3479 27.7566 89.7236 29.2594 86.0108 29.2594C85.5688 29.2594 85.1269 29.2594 84.6849 29.171C84.2429 29.0826 83.8009 28.9942 83.3589 28.9058C82.4749 28.729 81.5909 28.3754 80.7954 27.9334C79.2042 27.1378 77.8782 25.8118 76.9058 24.3975H72.0439C72.0439 24.3975 72.3091 24.8395 72.7511 25.7234C72.9279 26.077 73.3699 26.519 73.7235 27.0494Z" fill="#00E9C9"/>
<path d="M9.81218 11.8453C9.90057 11.4917 9.90057 11.2265 9.90057 10.9613C9.90057 9.37014 8.8398 8.66296 6.62985 8.66296C6.09946 8.66296 5.48068 8.66296 4.95029 8.83976C3.88951 9.01655 3.27073 9.19335 2.20995 9.63534L2.56354 7.51379C4.4199 7.16019 5.83427 6.9834 6.98344 6.9834C10.3426 6.9834 12.3757 8.39777 12.3757 10.6961C12.3757 11.1381 12.2873 11.9337 12.1989 12.8177L11.2265 21.2155H8.9282L9.10499 19.5359C7.69062 20.9503 6.45305 21.5691 4.77349 21.5691C1.94476 21.5691 0 19.7127 0 17.1492C0 14.0552 2.56354 11.5801 5.83427 11.5801C7.51383 11.5801 8.8398 12.1989 9.72378 13.4365L9.81218 11.8453ZM2.20995 16.884C2.20995 18.5635 3.62432 19.8011 5.48068 19.8011C7.69063 19.8011 9.45858 18.1215 9.45858 16.1768C9.45858 14.4972 8.04422 13.2597 6.18786 13.2597C4.06631 13.2597 2.38675 14.674 2.20995 16.6188V16.884Z" fill="#252160"/>
<path d="M16.2658 7.51426L18.6525 7.07227L18.2989 9.72421C19.9785 7.77945 21.4813 7.07227 23.6912 7.07227C27.5807 7.07227 30.1443 9.72421 30.1443 13.4369C30.1443 17.8568 26.4315 21.6579 22.0116 21.6579C19.8017 21.6579 18.3873 20.8624 17.1498 18.9176L16.1774 26.6082L13.879 26.9618L16.2658 7.51426ZM17.6801 14.3209C17.6801 14.4977 17.6801 14.7629 17.6801 14.9397C17.6801 17.5916 19.5365 19.448 22.1884 19.448C25.2824 19.448 27.9343 16.7076 27.9343 13.6137C27.9343 10.9618 25.9896 9.01702 23.426 9.01702C20.5089 9.10542 18.0337 11.4038 17.6801 14.3209Z" fill="#252160"/>
<path d="M33.4153 7.51332L35.802 7.15973L35.4484 10.1653C36.0672 9.19288 36.5976 8.4857 37.128 8.1321C38.012 7.33652 39.4263 6.89453 40.8407 6.89453C41.0175 6.89453 41.1943 6.89453 41.5479 6.98293L40.3103 9.36968C40.0451 9.36968 39.8683 9.36968 39.7799 9.36968C37.3932 9.36968 35.36 11.7564 34.918 15.0271L34.1224 21.0382L31.8241 21.4802L33.4153 7.51332Z" fill="#252160"/>
<path d="M48.531 6.9834C52.4205 6.9834 55.0724 9.63534 55.0724 13.3481C55.0724 17.8564 51.2713 21.5691 46.763 21.5691C42.8735 21.5691 40.2216 18.9171 40.2216 15.2044C40.2216 14.9392 40.2216 14.5856 40.31 14.3204C40.8403 10.0773 44.3763 6.9834 48.531 6.9834ZM42.6083 14.3204C42.6083 14.4972 42.6083 14.7624 42.6083 15.0276C42.6083 17.6796 44.5531 19.5359 47.1166 19.5359C50.2105 19.5359 52.8625 16.7956 52.8625 13.7016C52.8625 11.0497 51.0061 9.10495 48.3542 9.10495C45.5254 9.10495 42.9619 11.4033 42.6083 14.3204Z" fill="#252160"/>
<path d="M58.0774 6.80713L61.6133 16.9729L67.6244 6.80713L69.6575 7.77951L60.9945 22.1L55.8674 7.8679L58.0774 6.80713Z" fill="#252160"/>
<path d="M78.8505 11.8453C78.9389 11.4917 78.9389 11.2265 78.9389 10.9613C78.9389 9.37014 77.8782 8.66296 75.6682 8.66296C75.1378 8.66296 74.519 8.66296 73.9886 8.83976C72.9279 9.01655 72.3091 9.19335 71.2483 9.63534L71.5135 7.51379C73.3699 7.16019 74.7842 6.9834 76.0218 6.9834C79.3809 6.9834 81.4141 8.39777 81.4141 10.6961C81.4141 11.1381 81.3257 11.9337 81.2373 12.8177L80.1765 21.2155H77.8782L78.055 19.5359C76.6406 20.9503 75.403 21.5691 73.7234 21.5691C70.8947 21.5691 68.95 19.7127 68.95 17.1492C68.95 14.0552 71.5135 11.5801 74.7842 11.5801C76.4638 11.5801 77.7898 12.1989 78.6737 13.4365L78.8505 11.8453ZM71.1599 16.884C71.1599 18.5635 72.5743 19.8011 74.4306 19.8011C76.6406 19.8011 78.4085 18.1215 78.4085 16.1768C78.4085 14.4972 76.9942 13.2597 75.1378 13.2597C73.0163 13.2597 71.3367 14.674 71.1599 16.6188V16.884Z" fill="#252160"/>
<path d="M83.6836 6.93686L88.7441 6.4898L88.3472 9.35099C88.6448 8.90393 88.7441 8.7251 89.0417 8.45687C90.2324 7.02627 91.5224 6.40039 93.2092 6.40039C93.6061 6.40039 93.8045 6.40039 94.3999 6.57921L92.7131 10.871C92.4154 10.871 92.3162 10.871 92.1177 10.871C89.7363 10.871 88.1487 12.5698 87.7518 15.431L86.958 21.1534L81.5999 21.6004L83.6836 6.93686Z" fill="#252160"/>
<path d="M102.896 12.2876C102.896 11.934 102.984 11.6688 102.984 11.492C102.984 10.166 102.012 9.45883 100.244 9.45883C98.9176 9.45883 97.5916 9.63562 95.8237 10.166L96.2657 6.80689C98.3872 6.54169 99.9784 6.4533 101.481 6.4533C105.724 6.4533 107.934 8.04446 107.934 11.05C107.934 11.4036 107.846 12.1108 107.757 12.7296L106.697 21.2158H102.188L102.365 19.4478C100.862 20.8622 99.5364 21.5694 97.9452 21.5694C95.1165 21.5694 93.2601 19.713 93.2601 17.0611C93.2601 13.9671 95.6469 11.5804 98.8292 11.5804C100.244 11.5804 101.304 12.0224 102.63 13.0831L102.896 12.2876ZM97.9452 16.3539C97.9452 16.4423 97.9452 16.5307 97.9452 16.5307C97.9452 17.5914 98.8292 18.387 100.067 18.387C101.481 18.387 102.719 17.3263 102.719 16.0887C102.719 15.0279 101.835 14.2323 100.597 14.2323C99.1828 14.2323 98.122 15.1163 97.9452 16.3539ZM102.277 1.14941H107.05L103.514 5.65771H100.244L102.277 1.14941Z" fill="#252160"/>
<path d="M111.382 7.16031L115.89 6.62992L115.713 8.48628C117.216 7.07191 118.454 6.45312 120.222 6.45312C123.757 6.45312 126.056 9.01667 126.056 12.8178C126.056 17.5913 122.697 21.5692 118.542 21.5692C116.951 21.5692 115.625 21.0388 114.564 19.8896L113.768 25.9891L108.995 26.4311L111.382 7.16031ZM115.271 14.0554C115.271 14.2321 115.271 14.3205 115.271 14.4973C115.271 16.1769 116.332 17.3261 117.923 17.3261C119.868 17.3261 121.371 15.6465 121.371 13.7018C121.371 12.0222 120.31 10.9614 118.719 10.9614C116.951 10.873 115.448 12.199 115.271 14.0554Z" fill="#252160"/>
<path d="M129.149 7.07184L133.923 6.62985L132.155 20.9503L127.381 21.3923L129.149 7.07184ZM132.331 0L134.807 2.82874L131.624 5.74587L129.149 2.82874L132.331 0Z" fill="#252160"/>
<path d="M147.271 1.41414L152.045 1.06055L149.57 20.9501L145.061 21.3921L145.327 19.3589C144.089 20.7733 142.763 21.4805 140.995 21.4805C137.459 21.4805 135.161 18.9169 135.161 15.1158C135.161 10.3423 138.697 6.45283 143.028 6.45283C144.443 6.45283 145.592 6.89482 146.564 7.95559L147.271 1.41414ZM139.758 13.9667C139.758 14.0551 139.669 14.2319 139.669 14.4086C139.669 16.0882 140.818 17.2374 142.41 17.2374C144.266 17.2374 145.945 15.5578 145.945 13.6131C145.945 11.9335 144.885 10.7843 143.205 10.7843C141.437 10.6959 139.934 12.1103 139.758 13.9667Z" fill="#252160"/>
<path d="M161.238 6.45312C165.304 6.45312 168.044 9.10507 168.044 12.9062C168.044 17.7681 164.243 21.5692 159.381 21.5692C155.315 21.5692 152.575 19.0056 152.575 15.1161C152.575 14.7625 152.575 14.4089 152.663 14.0554C153.193 9.63545 156.818 6.45312 161.238 6.45312ZM157.171 14.0554C157.171 14.2322 157.171 14.4089 157.171 14.4973C157.171 16.1769 158.321 17.3261 160 17.3261C162.033 17.3261 163.536 15.6465 163.536 13.525C163.536 11.8454 162.387 10.6962 160.796 10.6962C158.939 10.6962 157.437 12.1106 157.171 14.0554Z" fill="#252160"/>
</svg>
