<svg width="211" height="40" viewBox="0 0 211 40" fill="none" xmlns="http://www.w3.org/2000/svg">
<path d="M92.1545 33.8121C92.5965 34.4751 93.2595 35.1381 93.9225 35.8011C94.254 36.1326 94.696 36.4641 95.1379 36.7956C95.5799 37.1271 96.0219 37.4586 96.4639 37.6795C97.4584 38.232 98.4529 38.7845 99.6684 39.116C100.773 39.558 102.099 39.6685 103.315 39.8895C103.978 39.8895 104.641 39.8895 105.193 40H105.635H105.746H105.967L106.961 39.8895C108.287 39.779 109.503 39.4475 110.718 39.116C111.271 39.0055 111.934 38.674 112.486 38.453C113.039 38.232 113.591 38.011 114.144 37.6795C114.696 37.3481 115.138 37.1271 115.691 36.9061C116.243 36.5746 116.685 36.2431 117.127 36.0221C118.011 35.4696 118.784 34.8066 119.558 34.1436C120.331 33.5911 120.884 32.9281 121.436 32.3757C121.657 32.0442 121.989 31.8232 122.21 31.6022C122.431 31.3812 122.541 31.0497 122.762 30.8287C122.873 30.7182 122.983 30.6077 123.094 30.4972H121.326L120.331 31.4917L120.221 31.6022C116.685 34.6961 112.155 36.5746 107.514 36.5746C106.961 36.5746 106.409 36.5746 105.856 36.4641C105.304 36.3536 104.751 36.2431 104.199 36.1326C103.094 35.9116 101.989 35.4696 100.994 34.9171C99.0054 33.9226 97.3479 32.2652 96.1324 30.4972H90.0551C90.0551 30.4972 90.3866 31.0497 90.939 32.1547C91.16 32.5967 91.7125 33.1491 92.1545 33.8121Z" fill="#00E9C9"/>
<path d="M12.2652 14.8063C12.3757 14.3643 12.3757 14.0328 12.3757 13.7013C12.3757 11.7124 11.0498 10.8284 8.28733 10.8284C7.62434 10.8284 6.85086 10.8284 6.18787 11.0494C4.8619 11.2704 4.08842 11.4914 2.76244 12.0438L3.20443 9.3919C5.52489 8.94991 7.29285 8.72892 8.72932 8.72892C12.9282 8.72892 15.4697 10.4969 15.4697 13.3698C15.4697 13.9223 15.3592 14.9168 15.2487 16.0218L14.0332 26.5191H11.1603L11.3813 24.4196C9.6133 26.1876 8.06633 26.961 5.96688 26.961C2.43095 26.961 0 24.6406 0 21.4362C0 17.5687 3.20443 14.4748 7.29285 14.4748C9.39231 14.4748 11.0498 15.2483 12.1548 16.7953L12.2652 14.8063ZM2.76244 21.1047C2.76244 23.2041 4.53041 24.7511 6.85086 24.7511C9.6133 24.7511 11.8233 22.6516 11.8233 20.2207C11.8233 18.1212 10.0553 16.5743 7.73484 16.5743C5.0829 16.5743 2.98344 18.3422 2.76244 20.7732V21.1047Z" fill="white"/>
<path d="M20.3323 9.39292L23.3158 8.84044L22.8738 12.1554C24.9732 9.72442 26.8517 8.84044 29.6141 8.84044C34.476 8.84044 37.6805 12.1554 37.6805 16.7963C37.6805 22.3212 33.0396 27.0726 27.5147 27.0726C24.7522 27.0726 22.9843 26.0781 21.4373 23.6471L20.2218 33.2604L17.3489 33.7024L20.3323 9.39292ZM22.1003 17.9012C22.1003 18.1222 22.1003 18.4537 22.1003 18.6747C22.1003 21.9897 24.4207 24.3101 27.7357 24.3101C31.6031 24.3101 34.918 20.8847 34.918 17.0173C34.918 13.7023 32.4871 11.2714 29.2826 11.2714C25.6362 11.3819 22.5423 14.2548 22.1003 17.9012Z" fill="white"/>
<path d="M41.7692 9.39183L44.7527 8.94984L44.3107 12.7068C45.0842 11.4913 45.7471 10.6073 46.4101 10.1653C47.5151 9.17083 49.2831 8.61834 51.051 8.61834C51.272 8.61834 51.493 8.61834 51.935 8.72884L50.3881 11.7123C50.0566 11.7123 49.8356 11.7123 49.7251 11.7123C46.7416 11.7123 44.2002 14.6957 43.6477 18.7841L42.6532 26.298L39.7803 26.8505L41.7692 9.39183Z" fill="white"/>
<path d="M60.6639 8.72892C65.5258 8.72892 68.8407 12.0438 68.8407 16.6848C68.8407 22.3201 64.0893 26.961 58.4539 26.961C53.592 26.961 50.2771 23.6461 50.2771 19.0052C50.2771 18.6737 50.2771 18.2317 50.3876 17.9002C51.0506 12.5963 55.4705 8.72892 60.6639 8.72892ZM53.2605 17.9002C53.2605 18.1212 53.2605 18.4527 53.2605 18.7842C53.2605 22.0991 55.6915 24.4196 58.8959 24.4196C62.7633 24.4196 66.0783 20.9942 66.0783 17.1267C66.0783 13.8118 63.7578 11.3809 60.4429 11.3809C56.907 11.3809 53.7025 14.2538 53.2605 17.9002Z" fill="white"/>
<path d="M72.5969 8.50904L77.0168 21.2163L84.5307 8.50904L87.0721 9.72451L76.2433 27.6251L69.8345 9.83501L72.5969 8.50904Z" fill="white"/>
<path d="M98.5633 14.8063C98.6738 14.3643 98.6738 14.0328 98.6738 13.7013C98.6738 11.7124 97.3478 10.8284 94.5853 10.8284C93.9223 10.8284 93.1489 10.8284 92.4859 11.0494C91.1599 11.2704 90.3864 11.4914 89.0604 12.0438L89.3919 9.3919C91.7124 8.94991 93.4804 8.72892 95.0273 8.72892C99.2262 8.72892 101.768 10.4969 101.768 13.3698C101.768 13.9223 101.657 14.9168 101.547 16.0218L100.221 26.5191H97.3478L97.5688 24.4196C95.8008 26.1876 94.2538 26.961 92.1544 26.961C88.6185 26.961 86.1875 24.6406 86.1875 21.4362C86.1875 17.5687 89.3919 14.4748 93.4804 14.4748C95.5798 14.4748 97.2373 15.2483 98.3423 16.7953L98.5633 14.8063ZM88.9499 21.1047C88.9499 23.2041 90.7179 24.7511 93.0384 24.7511C95.8008 24.7511 98.0108 22.6516 98.0108 20.2207C98.0108 18.1212 96.2428 16.5743 93.9223 16.5743C91.2704 16.5743 89.1709 18.3422 88.9499 20.7732V21.1047Z" fill="white"/>
<path d="M104.605 8.67118L110.93 8.11236L110.434 11.6888C110.806 11.13 110.93 10.9065 111.302 10.5712C112.791 8.78295 114.403 8.00059 116.512 8.00059C117.008 8.00059 117.256 8.00059 118 8.22412L115.892 13.5889C115.519 13.5889 115.395 13.5889 115.147 13.5889C112.171 13.5889 110.186 15.7124 109.69 19.2889L108.698 26.4419L102 27.0007L104.605 8.67118Z" fill="white"/>
<path d="M128.62 15.3595C128.62 14.9175 128.73 14.586 128.73 14.365C128.73 12.7076 127.515 11.8236 125.305 11.8236C123.647 11.8236 121.99 12.0446 119.78 12.7076L120.332 8.50866C122.984 8.17717 124.973 8.06667 126.852 8.06667C132.156 8.06667 134.918 10.0556 134.918 13.8126C134.918 14.2545 134.808 15.1385 134.697 15.912L133.371 26.5198H127.736L127.957 24.3098C126.078 26.0778 124.421 26.9618 122.432 26.9618C118.896 26.9618 116.575 24.6413 116.575 21.3264C116.575 17.459 119.559 14.4755 123.537 14.4755C125.305 14.4755 126.631 15.028 128.288 16.354L128.62 15.3595ZM122.432 20.4424C122.432 20.5529 122.432 20.6634 122.432 20.6634C122.432 21.9894 123.537 22.9839 125.084 22.9839C126.852 22.9839 128.399 21.6579 128.399 20.1109C128.399 18.785 127.294 17.7905 125.747 17.7905C123.979 17.7905 122.653 18.8955 122.432 20.4424ZM127.846 1.43681H133.813L129.393 7.07219H125.305L127.846 1.43681Z" fill="white"/>
<path d="M139.228 8.95042L144.863 8.28743L144.642 10.6079C146.52 8.83992 148.067 8.06643 150.277 8.06643C154.697 8.06643 157.57 11.2709 157.57 16.0223C157.57 21.9891 153.371 26.9615 148.178 26.9615C146.189 26.9615 144.531 26.2986 143.205 24.8621L142.211 32.4864L136.244 33.0389L139.228 8.95042ZM144.089 17.5692C144.089 17.7902 144.089 17.9007 144.089 18.1217C144.089 20.2212 145.415 21.6577 147.404 21.6577C149.835 21.6577 151.714 19.5582 151.714 17.1272C151.714 15.0278 150.388 13.7018 148.399 13.7018C146.189 13.5913 144.31 15.2488 144.089 17.5692Z" fill="white"/>
<path d="M161.437 8.83982L167.404 8.28733L165.194 26.188L159.227 26.7405L161.437 8.83982ZM165.415 0L168.509 3.53593L164.531 7.18235L161.437 3.53593L165.415 0Z" fill="white"/>
<path d="M184.09 1.76729L190.057 1.3253L186.963 26.1873L181.327 26.7398L181.659 24.1983C180.112 25.9663 178.454 26.8503 176.244 26.8503C171.824 26.8503 168.952 23.6459 168.952 18.8944C168.952 12.9276 173.371 8.06567 178.786 8.06567C180.554 8.06567 181.99 8.61816 183.206 9.94413L184.09 1.76729ZM174.697 17.458C174.697 17.5685 174.587 17.7895 174.587 18.0105C174.587 20.1099 176.023 21.5464 178.012 21.5464C180.333 21.5464 182.432 19.4469 182.432 17.016C182.432 14.9165 181.106 13.4801 179.007 13.4801C176.797 13.3696 174.918 15.1375 174.697 17.458Z" fill="white"/>
<path d="M201.548 8.06643C206.63 8.06643 210.056 11.3814 210.056 16.1328C210.056 22.2101 205.304 26.9615 199.227 26.9615C194.144 26.9615 190.719 23.7571 190.719 18.8952C190.719 18.4532 190.719 18.0112 190.829 17.5692C191.492 12.0444 196.023 8.06643 201.548 8.06643ZM196.465 17.5692C196.465 17.7902 196.465 18.0112 196.465 18.1217C196.465 20.2212 197.901 21.6577 200.001 21.6577C202.542 21.6577 204.42 19.5582 204.42 16.9063C204.42 14.8068 202.984 13.3703 200.995 13.3703C198.675 13.3703 196.796 15.1383 196.465 17.5692Z" fill="white"/>
</svg>
